<?xml version="1.0" encoding="utf-8"?>
<!-- Generator: Adobe Illustrator 23.0.1, SVG Export Plug-In . SVG Version: 6.00 Build 0)  -->
<svg version="1.1" xmlns="http://www.w3.org/2000/svg" xmlns:xlink="http://www.w3.org/1999/xlink" x="0px" y="0px"
	 viewBox="0 0 1920 1080" style="enable-background:new 0 0 1920 1080;" xml:space="preserve">
<style type="text/css">
	.st0{fill:#FFFFFF;}
	.st1{fill:#2E3138;stroke:#2E3138;stroke-miterlimit:10;}
	.st2{font-family:'Montserrat-Italic';}
	.st3{font-size:24px;}
	.st4{font-family:'PlayfairDisplay-Bold';}
	.st5{font-size:36px;}
	.st6{font-size:21px;}
	.st7{font-family:'PlayfairDisplay-Regular';}
	.st8{fill:#FF6D05;}
	.st9{font-family:'Montserrat-Medium';}
	.st10{font-size:48px;}
	.st11{fill:#D99A9A;}
	.st12{font-family:'PlayfairDisplay-Black';}
	.st13{fill:#FF6D05;stroke:#FFFFFF;stroke-miterlimit:10;}
	.st14{font-family:'Montserrat-BoldItalic';}
	.st15{stroke:#FFFFFF;stroke-width:2;stroke-miterlimit:10;}
	.st16{fill:#2E3138;stroke:#FFFFFF;stroke-width:2;stroke-miterlimit:10;}
	.st17{fill:#FFFFFF;stroke:#FFFFFF;stroke-width:2;stroke-miterlimit:10;}
	.st18{fill:#D99A9A;stroke:#FFFFFF;stroke-width:2;stroke-miterlimit:10;}
	.st19{fill:#FF6D05;stroke:#FFFFFF;stroke-width:2;stroke-miterlimit:10;}
	.st20{fill:#2E3138;}
	.st21{fill:none;stroke:#2E3138;stroke-miterlimit:10;}
	.st22{fill:none;stroke:#2E3138;stroke-width:0.25;stroke-miterlimit:10;}
	.st23{fill:none;stroke:#D99A9A;stroke-width:2;stroke-miterlimit:10;}
	.st24{fill:none;stroke:#D99A9A;stroke-width:5;stroke-miterlimit:10;}
	.st25{fill:none;stroke:#FFFFFF;stroke-width:2;stroke-miterlimit:10;}
</style>
<g id="Background">
	<path class="st0" d="M1286.8,336.3c-85,6.5-170.3,10.8-255.5,12.9c-34.8-1.8-69.6-3-104.4-3.5c-23.8-0.3-47.6-0.3-71.5,0
		c-6.4,0.1-6.4,10.1,0,10c17.3-0.2,34.6-0.3,51.9-0.2c0,1.1,0.3,2.3,1,3.2c-35.2,0.3-70.3,0.2-105.5-0.5c-45.5-0.9-91-2.5-136.4-5
		c-6.4-0.4-6.4,9.6,0,10c80.7,4.4,161.5,6.3,242.3,5.5c60-0.6,119.9-2.5,179.8-5.9c4.9,0.4,9.9,0.8,14.8,1.1
		c-51.3,1.9-102.6,3.4-153.9,4.3c-75.7,1.4-151.4,1.7-227.1,0.9c-42.5-0.4-85-1.2-127.5-2.4c-6.4-0.2-6.4,9.8,0,10
		c75.7,2,151.4,2.9,227.1,2.8c75.7-0.2,151.4-1.4,227.1-3.8c42.5-1.3,85-3,127.4-5c6.5-0.3,6.3-9.3,0-10c-7.5-0.8-15-1.6-22.6-2.3
		c44.4-3.3,88.7-7.4,132.9-12.2C1293.1,345.6,1293.3,335.8,1286.8,336.3z"/>
	<path class="st0" d="M492,391.9c-6.4,0-6.4,10,0,10C498.4,401.9,498.4,391.9,492,391.9z"/>
	<g>
		<g>
			<path class="st0" d="M254.6,78.7c-33.3,5.6-67.5,11.4-97.6,27.6c-26.7,14.3-46.7,35.9-57.7,64.2c-6.6,17.1-10.3,35.2-13.8,53.2
				c-0.4,1.9,2.5,2.7,2.9,0.8c6-30.1,12.4-62,32.8-86.2c19.9-23.6,48.8-37.2,78-45.3c18.4-5.1,37.3-8.3,56.1-11.5
				C257.3,81.2,256.5,78.4,254.6,78.7L254.6,78.7z"/>
		</g>
	</g>
	<g>
		<g>
			<path class="st0" d="M30.5,22.4c-5.2,33.6-5.8,67.7-1.6,101.5c2,16.2,5.5,32.1,8.5,48.2c3.2,17.4,4.8,34.7,4.2,52.4
				c-0.7,17.5-2.8,34.8-4.4,52.2c-1.6,17.6-2.9,35.2-3.7,52.8c-1.7,34.6-2,69.3-0.9,103.9c1.2,35,3.8,69.9,7.9,104.6
				c3.6,30.3,8.2,60.7,7.8,91.4c-0.2,15.5-1.7,31.1-5.5,46.2c-3.9,15.1-10.8,28.2-17.9,41.9c-6.7,12.9-8.1,26-4.7,40.1
				c3.7,15.5,11.1,29.9,14.6,45.5c7.3,32.5,1.4,66,0.9,98.8c-0.2,15,1.3,29.6,3.9,44.3c2.4,14,5.4,28.6,3,42.8
				c-1.2,7.2-4,13.9-8.6,19.6c-1.2,1.5,0.9,3.6,2.1,2.1c17-21,8.9-49.7,5-73.8c-5.3-33,0.5-66,0.3-99.2c-0.1-15.5-1.8-31-6.5-45.9
				c-4.9-15.6-12.9-30.9-13.6-47.5c-0.7-17.1,9.8-29.9,16.4-44.8c5.8-13.1,9.5-27,11.6-41.2c4.3-30.2,1.5-60.9-2.1-91
				c-4-33.5-7.9-67-9.9-100.7c-4.2-70.4-1.8-140.6,5.1-210.7c1.7-17.4,3.2-34.9,2.3-52.3c-0.8-16.6-4.2-32.9-7.4-49.1
				c-6.8-34.3-9.6-69-6.8-103.9c0.7-9.2,1.8-18.3,3.2-27.4C33.7,21.3,30.8,20.5,30.5,22.4L30.5,22.4z"/>
		</g>
	</g>
	<g>
		<g>
			<path class="st0" d="M38.2,47.6c1.9,0,1.9-3,0-3C36.3,44.6,36.2,47.6,38.2,47.6L38.2,47.6z"/>
		</g>
	</g>
	<g>
		<g>
			<path class="st0" d="M44.5,51.8c1.9,0,1.9-3,0-3C42.6,48.8,42.5,51.8,44.5,51.8L44.5,51.8z"/>
		</g>
	</g>
	<g>
		<g>
			<path class="st0" d="M44.2,50c-1.9,12.5-3.8,25-5.7,37.5c-1.8,11.8-3.9,23.7-4.1,35.6c-0.3,18.9,5.6,38.9,22.3,49.5
				c1.6,1,3.1-1.6,1.5-2.6c-17.7-11.2-21.8-33.2-20.6-52.7c1.4-22.2,6.1-44.6,9.5-66.6C47.4,48.9,44.5,48.1,44.2,50L44.2,50z"/>
		</g>
	</g>
	<g>
		<g>
			<path class="st0" d="M71.8,81.2c1.9,0,1.9-3,0-3C69.9,78.2,69.9,81.2,71.8,81.2L71.8,81.2z"/>
		</g>
	</g>
	<g>
		<g>
			<path class="st0" d="M71.8,81.2c1.9,0,1.9-3,0-3C69.9,78.2,69.9,81.2,71.8,81.2L71.8,81.2z"/>
		</g>
	</g>
	<g>
		<g>
			<path class="st0" d="M71.8,79.1c1.9,0,1.9-3,0-3C69.9,76.1,69.9,79.1,71.8,79.1L71.8,79.1z"/>
		</g>
	</g>
	<g>
		<g>
			<path class="st0" d="M94.1,77.3c-7.1,46.2,10.1,90.7,19.4,135.3c10,47.8,9.2,97,4.4,145.5c-2.7,27.6-6.6,55-10.6,82.4
				c-0.3,1.9,2.6,2.7,2.9,0.8c6.9-47.4,13.8-95.1,14.1-143.1c0.2-23.2-1.2-46.5-4.8-69.4c-3.8-23.8-10.5-46.9-16-70.3
				c-6.2-26.3-10.7-53.4-6.5-80.4C97.3,76.2,94.4,75.4,94.1,77.3L94.1,77.3z"/>
		</g>
	</g>
	<g>
		<g>
			<path class="st0" d="M89,146.9c-0.6,92.8-1.2,185.6-1.8,278.3c-0.2,26.3-0.3,52.5-0.5,78.8c0,1.9,3,1.9,3,0
				c0.6-92.8,1.2-185.6,1.8-278.3c0.2-26.3,0.3-52.5,0.5-78.8C92,145,89,145,89,146.9L89,146.9z"/>
		</g>
	</g>
	<g>
		<g>
			<path class="st0" d="M97.5,144.8c7,102.6,40.8,200.4,64.1,299.9c6.6,28.2,12.3,56.6,16.4,85.3c0.3,1.9,3.2,1.1,2.9-0.8
				c-14.5-100.9-49.4-197.3-68.7-297.2c-5.6-28.8-9.7-57.9-11.8-87.2C100.4,142.8,97.4,142.8,97.5,144.8L97.5,144.8z"/>
		</g>
	</g>
	<g>
		<g>
			<path class="st0" d="M96.6,62.9c3.5,104.7,12.1,209.3,25.7,313.2c3.8,28.9,8,57.7,12.5,86.5c0.3,1.9,3.2,1.1,2.9-0.8
				c-16.3-103-27.6-206.9-34-311c-1.8-29.3-3.1-58.6-4.1-87.9C99.5,61,96.5,61,96.6,62.9L96.6,62.9z"/>
		</g>
	</g>
	<g>
		<g>
			<path class="st0" d="M107.6,66.6c65,1.2,129.3,10.6,193.6,19.5c31.1,4.3,62.2,8.6,93.4,11.7c31.8,3.2,63.8,4.9,95.6,8.3
				c64.6,6.8,126.5,26.1,190.2,38.2c62.3,11.8,125.2,19.4,188.3,25.4c34.5,3.3,69.2,5.5,103.7,9.3c34.3,3.8,68.7,10,100.3,24.2
				c0-0.9,0-1.7,0-2.6c-79.5,34.2-161,63.6-244,88c-23.2,6.8-46.6,13.3-70,19.3c-1.9,0.5-1.1,3.4,0.8,2.9
				c84.2-21.8,167.1-48.6,248-80.3c22.4-8.8,44.6-17.9,66.6-27.4c1-0.4,1-2.2,0-2.6c-55.2-24.6-117.1-26-176.3-31.2
				c-64.8-5.7-129.5-12.7-193.7-23.8c-32-5.6-63.8-12.4-95.4-20c-30.8-7.4-61.6-15-93-19.4c-31.8-4.5-63.9-6.4-95.9-9.1
				c-32.3-2.7-64.5-6.6-96.6-11C251.6,76.5,180,65,107.6,63.6C105.6,63.6,105.6,66.6,107.6,66.6L107.6,66.6z"/>
		</g>
	</g>
	<g>
		<g>
			<path class="st0" d="M95.8,56.6C88.5,116,88.9,176,89,235.7c0,59.5,1.2,119.2,9.4,178.2c15.9,113.7,57.2,223.4,59.3,339
				c1.1,60.9-8.5,122.6-35.5,177.6c-0.8,1.7,1.7,3.2,2.6,1.5c49.1-99.6,40-214,18.1-319.4c-12-57.5-27.2-114.2-37.2-172.1
				C95.2,380.6,92.5,320,92.1,259.3c-0.5-67.5-1.5-135.6,6.7-202.7C99,54.7,96,54.7,95.8,56.6L95.8,56.6z"/>
		</g>
	</g>
	<g>
		<g>
			<path class="st0" d="M69.8,69.3C63,191.5,67.5,314.3,83.3,435.7c4.4,33.7,9.6,67.3,15.7,100.8c0.3,1.9,3.2,1.1,2.9-0.8
				C80.1,416,69.3,294.4,69.7,172.7c0.1-34.5,1.2-69,3.1-103.5C72.9,67.3,69.9,67.3,69.8,69.3L69.8,69.3z"/>
		</g>
	</g>
	<rect x="30.5" y="32.5" class="st1" width="1859" height="1018"/>
	<g>
		<text transform="matrix(1 0 0 1 394.0195 983.0781)" class="st2 st3">#2D3037</text>
		<text transform="matrix(1 0 0 1 394.0195 983.0781)" class="st0 st2 st3">#2D3037</text>
	</g>
	<g>
		<text transform="matrix(1 0 0 1 628 983.0391)" class="st2 st3">#FFFFFF</text>
		<text transform="matrix(1 0 0 1 628 983.0391)" class="st0 st2 st3">#FFFFFF</text>
	</g>
	<g>
		<text transform="matrix(1 0 0 1 850.0981 982.8828)" class="st2 st3">#D99A9A</text>
		<text transform="matrix(1 0 0 1 850.0981 982.8828)" class="st0 st2 st3">#D99A9A</text>
	</g>
	<g>
		<text transform="matrix(1 0 0 1 1072.9023 982.8828)" class="st2 st3">#FF6D05</text>
		<text transform="matrix(1 0 0 1 1072.9023 982.8828)" class="st0 st2 st3">#FF6D05</text>
	</g>
	<g>
		<text transform="matrix(1 0 0 1 122.7646 188.5688)" class="st4 st5">FONT : Playfair Display bold     #FF6D05</text>
		<text transform="matrix(1 0 0 1 122.7646 188.5688)" class="st0 st4 st5">FONT : Playfair Display bold     #FF6D05</text>
	</g>
	<g>
		<text transform="matrix(1 0 0 1 1689.3525 84.647)" class="st4 st6">STYLE TILE</text>
		<text transform="matrix(1 0 0 1 1689.3525 84.647)" class="st0 st4 st6">STYLE TILE</text>
	</g>
	<g>
		<text transform="matrix(1 0 0 1 240.7061 281.9805)" class="st7 st5">THIS IS A SUB HEADER</text>
		<text transform="matrix(1 0 0 1 240.7061 281.9805)" class="st0 st7 st5">THIS IS A SUB HEADER</text>
		<text transform="matrix(1 0 0 1 240.7061 281.9805)" class="st8 st7 st5">THIS IS A SUB HEADER</text>
	</g>
	<g>
		<text transform="matrix(1 0 0 1 240.314 325.9609)" class="st7 st3">FONT : Playfair Display    #FF6D05</text>
		<text transform="matrix(1 0 0 1 240.314 325.9609)" class="st0 st7 st3">FONT : Playfair Display    #FF6D05</text>
	</g>
	<g>
		<text transform="matrix(1 0 0 1 209.7451 479.4902)" class="st9 st3">FONT : Montserrat medium   #FFFFFF </text>
		<text transform="matrix(1 0 0 1 209.7451 479.4902)" class="st0 st9 st3">FONT : Montserrat medium   #FFFFFF </text>
	</g>
	<g>
		<text transform="matrix(1 0 0 1 1565.9746 441.793)" class="st4 st10">APPEALING</text>
		<text transform="matrix(1 0 0 1 1565.9746 441.793)" class="st11 st4 st10">APPEALING</text>
	</g>
	<g>
		<text transform="matrix(1 0 0 1 1426.6719 512.9453)" class="st12 st10">SOPHISTICATED</text>
		<text transform="matrix(1 0 0 1 1426.6719 512.9453)" class="st0 st12 st10">SOPHISTICATED</text>
	</g>
	<g>
		<text transform="matrix(1 0 0 1 1350.7275 587.207)" class="st4 st10">SMART</text>
		<text transform="matrix(1 0 0 1 1350.7275 587.207)" class="st8 st4 st10">SMART</text>
	</g>
	<g>
		<text transform="matrix(1 0 0 1 1397.0889 707.332)" class="st9 st3">Images: </text>
		<text transform="matrix(1 0 0 1 1397.0889 707.332)" class="st0 st9 st3">Images: </text>
	</g>
	<g>
		<text transform="matrix(1 0 0 1 123.2578 707.7432)" class="st9 st3">Colour Palette : </text>
		<text transform="matrix(1 0 0 1 123.2578 707.7432)" class="st0 st9 st3">Colour Palette : </text>
	</g>
	
		<image style="overflow:visible;" width="1110" height="1124" xlink:href="../science_museum_website/images/graphics/owltree.png"  transform="matrix(0.2964 0 0 0.2731 1512 708)">
	</image>
	<g>
		<text transform="matrix(1 0 0 1 1409.6045 170.8931)" class="st9 st3">Logo : </text>
		<text transform="matrix(1 0 0 1 1409.6045 170.8931)" class="st0 st9 st3">Logo : </text>
	</g>
	<g>
		<text transform="matrix(1 0 0 1 886.0088 516.5903)" class="st9 st3">Button : </text>
		<text transform="matrix(1 0 0 1 886.0088 516.5903)" class="st0 st9 st3">Button : </text>
	</g>
	<path class="st13" d="M1056.5,646.5h-158c-6.6,0-12-5.4-12-12v-70c0-6.6,5.4-12,12-12h158c6.6,0,12,5.4,12,12v70
		C1068.5,641.1,1063.1,646.5,1056.5,646.5z"/>
	<g>
	</g>
	<g>
		<text transform="matrix(1 0 0 1 887.147 678.9771)" class="st9 st3">Font : Montserrat  #FF6D05</text>
		<text transform="matrix(1 0 0 1 887.147 678.9771)" class="st0 st9 st3">Font : Montserrat  #FF6D05</text>
	</g>
	<g>
		<text transform="matrix(1 0 0 1 225.9146 567.0869)" class="st8 st14 st3">This is an example of a text link</text>
		<text transform="matrix(1 0 0 1 225.9146 567.0869)" class="st11 st14 st3">This is an example of a text link</text>
	</g>
	<g>
		<text transform="matrix(1 0 0 1 192.0879 612.6396)" class="st14 st3">FONT : Montserrat bold italic   #D99A9A </text>
		<text transform="matrix(1 0 0 1 192.0879 612.6396)" class="st0 st14 st3">FONT : Montserrat bold italic   #D99A9A </text>
	</g>
	<g>
		<text transform="matrix(1 0 0 1 886.522 170.4292)" class="st9 st3">Background-image : </text>
		<text transform="matrix(1 0 0 1 886.522 170.4292)" class="st0 st9 st3">Background-image : </text>
	</g>
	
		<image style="overflow:visible;" width="3125" height="2084" xlink:href="../science_museum_website/images/graphics/rocket.png"  transform="matrix(0.1187 0 0 0.1027 887 219)">
	</image>
</g>
<g id="Background_x5F_pattern">
</g>
<g id="Body_text">
	<g>
		<text transform="matrix(1 0 0 1 226.0391 441.314)" class="st9 st3">This is an example of a body text</text>
		<text transform="matrix(1 0 0 1 226.0391 441.314)" class="st0 st9 st3">This is an example of a body text</text>
	</g>
	<g>
		<text transform="matrix(1 0 0 1 1397.4805 390.353)" class="st9 st3">Keywords : </text>
		<text transform="matrix(1 0 0 1 1397.4805 390.353)" class="st0 st9 st3">Keywords : </text>
	</g>
</g>
<g id="Color_Palette">
	<circle class="st15" cx="210" cy="844" r="86"/>
	<circle class="st16" cx="444" cy="844" r="86"/>
	<circle class="st17" cx="678" cy="844" r="86"/>
	<circle class="st18" cx="905" cy="844" r="86"/>
	<circle class="st19" cx="1135" cy="852" r="86"/>
</g>
<g id="Font">
	<text transform="matrix(1 0 0 1 90.5596 130.0918)" class="st8 st4 st10">COMMUNITY SCIENCE MUSEUM</text>
	<g>
		<text transform="matrix(1 0 0 1 159.7256 982.8828)" class="st2 st3">#000000</text>
		<text transform="matrix(1 0 0 1 159.7256 982.8828)" class="st0 st2 st3">#000000</text>
	</g>
</g>
<g id="logo">
	<g>
		<g id="Background_2_">
			<g>
				<path class="st1" d="M1865.4,156.4c-0.1-5.4-0.1-10.8-0.2-16.1c0-4.4,0.3-9.2-1.5-13.4c-2.9-6.4-12.1-10.7-19-6.1
					c-0.4,0.2-0.7,0.6-1.1,0.9c-5-1.1-10.5-0.9-16-0.4c0.6-2.9-1.5-6.5-5.6-6.4c-27.5,1.2-55.1,1.7-82.6,1.4
					c-26.1-0.3-53.2-3-78.4,4c-0.4,0.1-0.7,0.2-1.1,0.4c-11.3-0.3-22.6-0.2-34,0.5c-0.8-1.5-2.5-2.7-5-2.9
					c-15.1-1.6-30.1-1.6-45.1-0.1c-2,0.2-3.7,1.2-4.6,2.6c-3.5,0.2-7.1,0.4-10.6,0.7c-0.7-1.5-2-3-3.9-3.3
					c-16.9-2.3-14.2,19.1-14.3,27.9c-0.2,16,0,32.2,0.7,48.2c0.1,1.3,0.7,2.4,1.5,3.2c-3.8,4.6-6.7,9.9-8.4,15.5
					c-3.8,12.9-0.6,26.1,8.2,36c-0.1,1.2-0.1,2.4-0.1,3.6c-0.4,0.6-0.8,1.2-1.1,1.9c-4.6,9.3-1.1,20.8-0.2,30.5
					c2.1,23.9,1.5,47.7-0.4,71.7c-0.9,10.8-0.9,22.9,6.8,32c6.7,7.8,17.2,12.5,28.3,10c0.8-0.2,1.5-0.5,2-0.8
					c6.8,0.8,13.5,1.1,20.4,0.7c0.2,0,0.5-0.1,0.7-0.1c49.4,1.3,98.7-0.6,148-2.6c13.5-0.6,27-1.3,40.5-2.6c0.5,0.2,1.1,0.2,1.6,0.2
					c13.4,0.3,26.6,0.7,40,1c0.1,0,0.2,0,0.3,0c0.4,0.4,0.8,0.8,1.4,1.1c9.9,6,23.4,1.5,29.6-6.8c0.1-0.1,0.2-0.2,0.2-0.3
					c3.7,1.5,9.1-0.2,8.8-4.5C1865.9,308.3,1866,232.3,1865.4,156.4z"/>
			</g>
			<path class="st20" d="M1844.7,136.2c-0.3-0.1-0.7-0.1-1.1-0.2l0,0c-0.1,0-0.1,0-0.2,0c-10-1.3-20-1.4-30-0.4
				c-50.7-0.6-101.2-1.2-151.9-1.9c-15.4-1.7-30.8-3.5-46.2-5.3c-3.5-0.4-4.7,3.6-3.4,6.1c-4.6-0.7-9.3-1.4-14-2.1
				c-2.3-0.3-4.6,1.1-5,3.2c-0.6,0.7-0.9,1.6-0.9,2.4c-0.3,20.3-0.7,40.5-1,60.7c0,1.5,0.7,2.7,1.9,3.3c-0.4,0.6-0.7,1.3-0.8,2.1
				c-1.5,14.3-2.1,28.7-2,43.2c0,1.4,0.7,2.4,1.8,3.2c-3.4,11.3-3.7,23.4-1,34.8c0.4,8.9,0.7,17.8,0.7,26.6
				c-0.1,21.4-1.6,42.9-2.9,64.3c-3.5,0.8-4.5,6.8-0.2,7.9c7.1,2,14.3,1.8,21.6,1.7c7.5-0.1,15-0.2,22.5-0.2
				c12.7-0.2,25.4-0.2,38-1.9c7.2,0.5,13.8,0.3,19.8-0.1c0.2,0.7,0.5,1.2,1,1.7c8.3,8.9,19.5,3.5,29.4,1.7c6.4-1.1,13,1.1,19.5,0.9
				c6.7-0.2,13.2-1.5,19.8-2.1c6.5-0.6,12.9,0.7,19.4,0.4c6.2-0.3,12.3-1.3,18.6-1.3c13.8,0.1,27.5,1.5,41.2,2.4
				c2,0.2,4.3-2,4.1-4.1c-0.3-2.7-0.6-5.3-0.7-8c0.7-0.7,1.1-1.6,1.1-2.9c-0.1-2.9-0.2-5.9-0.4-8.8c-0.1-5.5,0.3-11,1.1-16.5
				c0.2-1.5-0.3-2.8-1.1-3.7c-1.7-63.5-1.5-127,0.7-190.6c0.7-0.7,1.1-1.6,1-2.9c-0.1-1.5-0.2-3-0.2-4.5c0-0.5-0.1-1-0.2-1.4
				C1848.2,143,1848.9,136.7,1844.7,136.2z M1677.8,341.2c23.2,4.1,46.7,5.5,70.2,4.2c-1.1,2.9-2.8,6.3-3,9.4
				c-6.6,0-13.2,0.2-19.9,0.5c-1.5,0.1-2.4,0.7-3.1,1.6c-2.2,0.1-4.3,0.2-6.5,0.3c-0.2,0-0.3-0.1-0.5-0.1c-5.7-0.6-11.4-1-17-1.4
				c-2.8-0.5-5.5-0.9-8.3-1.1c-1.5-0.3-3.1-0.6-4.6-0.9c-2.3-1.9-4.6-3.8-6.8-5.8c-5.1-4.6-10.1-9.3-15-14.2
				c2.4-0.2,5.2,0.3,7.2,0.4c2,0.1,3.9,0.2,5.9,0.3C1674.2,336.5,1674.2,340.5,1677.8,341.2z M1818.5,144.2
				c-0.2,0.7-0.2,1.5-0.1,2.2c-0.2,0.1-0.4,0.1-0.7,0.2c-0.2-0.6-0.2-1.2-0.4-1.8c-0.1-0.2-0.2-0.4-0.2-0.7
				C1817.6,144.2,1818.1,144.2,1818.5,144.2z M1599.2,147.9c1.8,0.7,3.4,0.8,5.5,0.2c0.1,0,0.2-0.1,0.2-0.1c13.5,0,27,0,40.5,0
				c2.9,0,4.7-3.3,3.9-5.7c6.2,0.2,12.3,0.5,18.5,0.7c1.1,0.1,1.9-0.2,2.5-0.7c46,0.6,92.1,1.1,138.1,1.7c0.3,0.2,0.7,0.2,1.1,0.3
				c-0.3,0.7-0.5,1.6-0.3,2.6c1.7,9.5,3.4,18.9,5.1,28.5c-0.8,12.2-0.7,24.5-0.6,36.7c0.2,20,1.4,40,3.3,59.8c0.2,2,1.3,3.2,2.6,3.7
				c0.1,1.1,0.7,2,1.5,2.4c0.2,3.8,0.3,7.8,0.6,11.6c-0.7,1.4-0.7,3.2,0.2,4.4l0.4,8.7c0,0.2-0.1,0.5-0.1,0.7
				c-1.6,0.4-2.9,1.6-2.7,3.8c0.1,0.8,0.1,1.7,0.2,2.5c-0.7,0.7-1.1,1.6-1,2.8c0.1,0.8,0.2,1.7,0.3,2.5c-0.4,0.6-0.7,1.4-0.7,2.2
				c0,1.5,0.2,2.9,0.6,4.2c0.6,4.2,1.1,8.5,1.6,12.7c0.1,5.3,0,10.6-0.1,15.9c0,1.5,0.6,2.4,1.5,3.1c0,0.2,0,0,0,0.2
				c-1,0.2-1.8,0.6-2.4,1.3c-0.4-0.2-0.7-0.5-1.2-0.7c-0.6-0.4-1.4-0.5-2.2-0.5c-0.5-0.8-1.2-1.4-2.3-1.5c-0.3-0.1-0.7-0.1-1-0.2
				l0,0c-0.1,0-0.2,0-0.3,0c-2-0.2-3.9-0.2-5.9-0.1c-3.8,0.2-7.5,0.7-11.2,1.7c-1.9,0.5-2.8,1.9-2.8,3.4c-7.5-0.4-15.1-0.7-22.6-1
				c-0.6-0.6-1.5-1-2.6-1c-4.5-0.2-8.9-0.3-13.4-0.3c-0.1-0.9,1.2-3.2,1.4-4c1-2.6,1.8-5.1,2.6-7.7c1.3-4.3,2.3-8.5,3.3-12.8
				c0.2,0-0.1,0-0.1,0s1.7-0.2,2.5-0.1c-0.9,2.7-2.5,8.2-2.8,9c-1.6,5,6.2,7.1,7.8,2.2c1.5-4.3,5.1-10.9,3-15.5
				c-0.8-1.8-2.5-2.9-4.5-3.3c-1-0.2-2.3-0.2-3.7-0.2c-0.3-2.2-2.5-3.7-5-3.3c-2.9,0.4-5.4,1.5-7.7,3c-1.3,0.6-2.3,1.5-3.2,2.6
				c-1,1.3-0.7,4.5-0.7,4.5s1,0,0.9,0c-3.8,1.2-7.1,1.7-10.3,4.5c-1.2,1.1-1.4,2.7-1,4.2c-6.4,0.1-12.8,0-19-0.2
				c0.3-0.2,0.6-0.5,0.9-0.8c2.7-2.8,0.5-6.7-2.9-7c-11.6-1.3-23.2-2.4-34.9-3.1c-5.5-0.3-11.1-0.7-16.6-0.7
				c-4.3,0-8.1,0.7-11.4,3.6c-1.7,1.5-1.4,4.3,0,5.9c5.3,5.5,10.8,11,16.4,16.1c-12.7-2.1-25.3-3.7-38.2-4.6c-4.6-0.3-5.6,7-1.2,8.1
				c-0.1,0,0.1,0,0.1,0c-2.3-0.1-3.6,1.3-3.8,2.9c-4.4-1.3-8.8-2.4-13.3-3.5c-1-0.2-1.9-0.1-2.6,0.2c0-0.7-0.2-1.3-0.5-1.8
				c0.8-6.3,1-12.5,0.6-18.8c0.1-0.2,0.2-0.6,0.2-0.8c1.7-16.1,1.1-32.1-1.3-48.1c-0.1-0.4-0.2-0.7-0.4-1.1c1.4-0.2,2.7-1.1,3.3-2.9
				c3.2-10.2,1.5-20.7-0.7-31.3c0-7.3,0.2-14.7,0.4-22c0.1-1.6-0.6-2.6-1.6-3.3c0.7-4.6,2.1-9.9,1.4-14.3c-0.9-5.6-1.8-11-2.2-16.6
				c-0.2-2-0.2-4.1-0.3-6c0.3-3.6,0.8-7.1,1.4-10.6c0.2-1.6-0.3-2.9-1.2-3.8c0-0.5,0.1-1,0.1-1.5c2.1,1.1,5.1,0.6,5.6-2.4
				c0.7-3.3,1.3-8.2-0.5-11.3c-1.7-2.9-6.1-2.9-9-2.4c-1.2,0.2-2.7,1.6-2.9,2.9c-1.1,7.9-1.7,15.8-1.8,23.8c0-1.7-0.1-3.4-0.2-5.2
				c-0.1-1.5-0.8-2.4-1.7-3.1C1599,165.3,1599.1,156.7,1599.2,147.9z M1599.2,216.2c0.1,3.4,0.2,6.8,0.6,10.2
				c-0.3-0.3-0.7-0.7-1.1-0.8C1598.8,222.4,1599,219.3,1599.2,216.2z"/>
			<path class="st20" d="M1622.3,390.7"/>
			<path class="st21" d="M1623.8,171.3c170-2.6,137.8-74.9,172.7-2.3"/>
			<line class="st21" x1="1722.8" y1="318.2" x2="1722.8" y2="318.2"/>
			<line class="st21" x1="1706" y1="318.5" x2="1706" y2="318.5"/>
			<line class="st21" x1="1775" y1="318.5" x2="1776" y2="318.5"/>
			<line class="st21" x1="1768" y1="315.5" x2="1768" y2="315.5"/>
			<line class="st21" x1="1687.4" y1="322.1" x2="1788.8" y2="305.9"/>
			<line class="st21" x1="1761" y1="371.5" x2="1761" y2="371.5"/>
			<line class="st21" x1="1779" y1="328.5" x2="1780" y2="328.5"/>
		</g>
		<g>
			<rect x="1711" y="274" class="st22" width="4" height="8"/>
			<rect x="1711.5" y="273.5" class="st21" width="4" height="8"/>
		</g>
		<path class="st18" d="M1738.9,322.1c-7.2,0-15.6-2.9-24.2-8.3c-13.5-8.6-26.5-22.9-36.4-40.2c-9.9-17.3-15.9-35.6-16.5-51.6
			c-0.8-16.5,4.1-28.6,13.6-34.1c9.5-5.5,22.4-3.7,36.3,5.1c13.5,8.6,26.5,22.9,36.4,40.2c10,17.3,15.9,35.6,16.5,51.6
			c0.7,16.5-4.2,28.6-13.8,34.1C1747.4,321.1,1743.3,322.1,1738.9,322.1z M1687.4,188.9c-3.7,0-7.2,0.8-10.2,2.6
			c-8.1,4.7-12.3,15.6-11.7,30.4c0.7,15.3,6.4,33,16,49.8c9.7,16.8,22.1,30.5,35.1,38.8c12.5,8,24,9.8,32.2,5.1
			c8.1-4.7,12.3-15.6,11.7-30.4c-0.7-15.3-6.4-33-16-49.8c-9.7-16.8-22.1-30.5-35.1-38.8C1701.5,191.4,1693.9,188.9,1687.4,188.9z"
			/>
		<path class="st18" d="M1687.4,322.1c-4.5,0-8.6-1-12.1-3.1c-9.6-5.5-14.4-17.6-13.8-34.1c0.7-16,6.6-34.3,16.5-51.6
			c9.9-17.3,22.9-31.6,36.4-40.2c13.9-8.9,26.9-10.7,36.3-5.1c9.6,5.5,14.4,17.6,13.8,34.1c-0.7,16-6.6,34.3-16.5,51.6
			c-9.9,17.3-22.9,31.6-36.4,40.2C1703.1,319.4,1694.8,322.1,1687.4,322.1L1687.4,322.1z M1738.9,188.9c-6.6,0-14,2.6-22,7.7
			c-12.9,8.3-25.4,22-35.1,38.8c-9.7,16.8-15.3,34.4-16,49.8c-0.7,14.8,3.5,25.7,11.7,30.4c8.1,4.7,19.5,2.9,32.2-5.1
			c12.9-8.3,25.4-22,35.1-38.8c9.7-16.8,15.3-34.4,16-49.8c0.6-14.8-3.5-25.7-11.7-30.4C1746,189.7,1742.6,188.9,1738.9,188.9
			L1738.9,188.9z"/>
		<path class="st18" d="M1713.2,293.8c-20,0-38.8-4.1-53-11.4c-14.7-7.7-22.7-18-22.7-29s8.1-21.3,22.7-28.8
			c14.1-7.3,33-11.5,53-11.5c20,0,38.8,4.1,53,11.4c14.7,7.7,22.7,18,22.7,29c0,11-8.1,21.3-22.7,28.8
			C1752,289.7,1733.1,293.8,1713.2,293.8z M1713.2,217.1c-39.4,0-71.7,16.2-71.7,36.3s32.2,36.3,71.7,36.3s71.7-16.2,71.7-36.3
			S1752.6,217.1,1713.2,217.1L1713.2,217.1z"/>
		<g>
			<polygon class="st8" points="1713.6,237.7 1718.8,248.6 1730.3,250.3 1722,258.7 1724,270.5 1713.6,264.9 1703.3,270.5 
				1705.3,258.7 1696.9,250.3 1708.4,248.6 			"/>
			<polygon class="st23" points="1713.6,237.7 1718.8,248.6 1730.3,250.3 1722,258.7 1724,270.5 1713.6,264.9 1703.3,270.5 
				1705.3,258.7 1696.9,250.3 1708.4,248.6 			"/>
			<polygon class="st24" points="1713.6,237.7 1718.8,248.6 1730.3,250.3 1722,258.7 1724,270.5 1713.6,264.9 1703.3,270.5 
				1705.3,258.7 1696.9,250.3 1708.4,248.6 			"/>
			<polygon class="st25" points="1713.6,237.7 1718.8,248.6 1730.3,250.3 1722,258.7 1724,270.5 1713.6,264.9 1703.3,270.5 
				1705.3,258.7 1696.9,250.3 1708.4,248.6 			"/>
		</g>
	</g>
</g>
</svg>
