<?xml version="1.0" encoding="utf-8"?>
<!-- Generator: Adobe Illustrator 23.0.1, SVG Export Plug-In . SVG Version: 6.00 Build 0)  -->
<svg version="1.1" id="Layer_2" xmlns="http://www.w3.org/2000/svg" xmlns:xlink="http://www.w3.org/1999/xlink" x="0px" y="0px"
	 viewBox="0 0 305 303.5" style="enable-background:new 0 0 305 303.5;" xml:space="preserve">
<style type="text/css">
	.st0{fill:#2E3138;stroke:#2E3138;stroke-miterlimit:10;}
	.st1{fill:#2E3138;}
	.st2{fill:none;stroke:#2E3138;stroke-miterlimit:10;}
	.st3{fill:none;stroke:#2E3138;stroke-width:0.25;stroke-miterlimit:10;}
	.st4{fill:#D99A9A;stroke:#FFFFFF;stroke-width:2;stroke-miterlimit:10;}
	.st5{fill:#FF6D05;}
	.st6{fill:none;stroke:#D99A9A;stroke-width:2;stroke-miterlimit:10;}
	.st7{fill:none;stroke:#D99A9A;stroke-width:5;stroke-miterlimit:10;}
	.st8{fill:none;stroke:#FFFFFF;stroke-width:2;stroke-miterlimit:10;}
</style>
<g id="Background">
	<g>
		<path class="st0" d="M333.7,24.1c-0.1-6.6-0.1-13.2-0.2-19.8c0-5.4,0.4-11.3-1.9-16.4c-3.5-7.8-14.9-13.1-23.3-7.5
			c-0.5,0.3-0.9,0.7-1.3,1.1c-6.2-1.4-12.9-1.1-19.6-0.5c0.7-3.6-1.9-8-6.9-7.8c-33.8,1.5-67.6,2.1-101.4,1.7
			c-32-0.4-65.3-3.7-96.3,4.9c-0.5,0.1-0.9,0.3-1.3,0.5c-13.9-0.4-27.8-0.2-41.7,0.6c-1-1.8-3.1-3.3-6.1-3.6
			c-18.5-2-36.9-2-55.4-0.1c-2.5,0.3-4.5,1.5-5.7,3.2c-4.3,0.2-8.7,0.5-13,0.9c-0.8-1.8-2.5-3.7-4.8-4C-66-25.5-62.6,0.7-62.8,11.6
			c-0.3,19.7,0,39.5,0.8,59.2c0.1,1.6,0.8,2.9,1.9,3.9c-4.7,5.6-8.2,12.1-10.3,19c-4.7,15.9-0.7,32,10.1,44.2
			c-0.1,1.5-0.1,2.9-0.1,4.4c-0.5,0.7-1,1.5-1.4,2.3c-5.6,11.4-1.3,25.6-0.2,37.5c2.6,29.4,1.9,58.6-0.5,88
			c-1.1,13.3-1.1,28.1,8.4,39.3c8.2,9.6,21.1,15.4,34.8,12.3c1-0.2,1.8-0.6,2.5-1c8.3,1,16.6,1.3,25.1,0.8c0.3,0,0.6-0.1,0.8-0.1
			c60.6,1.6,121.2-0.7,181.7-3.2c16.6-0.7,33.2-1.6,49.7-3.2c0.6,0.2,1.3,0.3,2,0.3c16.4,0.4,32.7,0.8,49.1,1.2c0.1,0,0.2,0,0.4,0
			c0.5,0.5,1,1,1.7,1.4c12.1,7.4,28.7,1.8,36.3-8.3c0.1-0.1,0.2-0.2,0.3-0.4c4.6,1.8,11.2-0.3,10.8-5.5
			C334.3,210.7,334.5,117.3,333.7,24.1z"/>
	</g>
	<path class="st1" d="M308.3,0c-0.4-0.1-0.9-0.1-1.3-0.2c0,0,0,0,0,0c-0.1,0-0.1,0-0.2,0c-12.3-1.6-24.5-1.7-36.8-0.5
		C207.8-1.4,145.7-2.2,83.5-3C64.6-5.1,45.7-7.3,26.8-9.5C22.5-10,21-5.1,22.6-2C16.9-2.9,11.2-3.7,5.4-4.6C2.6-5-0.3-3.2-0.8-0.7
		c-0.7,0.9-1.1,2-1.1,3C-2.3,27.2-2.7,52-3.1,76.8c0,1.9,0.9,3.3,2.3,4.1c-0.5,0.7-0.9,1.6-1,2.6c-1.8,17.6-2.6,35.3-2.4,53
		c0,1.7,0.9,3,2.2,3.9c-4.2,13.9-4.5,28.7-1.2,42.7c0.5,10.9,0.9,21.8,0.8,32.7c-0.1,26.3-2,52.7-3.5,79c-4.3,1-5.5,8.3-0.2,9.7
		c8.7,2.4,17.6,2.2,26.5,2.1c9.2-0.1,18.4-0.2,27.6-0.3c15.6-0.2,31.2-0.3,46.7-2.3c8.9,0.6,17,0.4,24.3-0.1
		c0.2,0.8,0.6,1.5,1.2,2.1c10.2,10.9,24,4.3,36.1,2.1c7.9-1.4,16,1.3,23.9,1.1c8.2-0.2,16.2-1.9,24.3-2.6c8-0.7,15.8,0.8,23.8,0.5
		c7.6-0.4,15.1-1.6,22.8-1.6c16.9,0.1,33.8,1.8,50.6,2.9c2.5,0.2,5.3-2.4,5-5c-0.4-3.3-0.7-6.5-0.9-9.8c0.9-0.8,1.4-2,1.4-3.6
		c-0.1-3.6-0.3-7.2-0.5-10.8c-0.1-6.8,0.4-13.5,1.4-20.3c0.3-1.9-0.4-3.4-1.4-4.5c-2.1-78-1.8-156,0.9-234c0.8-0.8,1.3-2,1.2-3.5
		c-0.1-1.8-0.2-3.7-0.2-5.5c0-0.6-0.1-1.2-0.3-1.7C312.6,8.4,313.5,0.7,308.3,0z M103.4,251.2c28.5,5,57.3,6.7,86.2,5.1
		c-1.3,3.5-3.4,7.7-3.7,11.6c-8.1,0-16.2,0.2-24.4,0.6c-1.8,0.1-3,0.9-3.8,2c-2.7,0.1-5.3,0.3-8,0.4c-0.2,0-0.4-0.1-0.6-0.1
		c-7-0.7-14-1.2-20.9-1.7c-3.4-0.6-6.8-1.1-10.2-1.4c-1.9-0.4-3.8-0.7-5.7-1.1c-2.8-2.3-5.6-4.7-8.3-7.1
		c-6.3-5.6-12.4-11.4-18.4-17.4c3-0.2,6.4,0.4,8.8,0.5c2.4,0.1,4.8,0.2,7.2,0.4C99,245.5,99,250.4,103.4,251.2z M276.2,9.4
		c-0.3,0.9-0.3,1.8-0.1,2.7c-0.3,0.1-0.5,0.1-0.8,0.2c-0.2-0.7-0.3-1.5-0.5-2.2c-0.1-0.3-0.2-0.5-0.3-0.8
		C275.1,9.4,275.7,9.4,276.2,9.4z M7.9,14c2.2,0.9,4.2,1,6.7,0.2c0.1,0,0.2-0.1,0.3-0.1c16.5,0,33.1,0,49.6,0c3.5,0,5.8-4.1,4.8-7
		C76.9,7.4,84.4,7.7,92,8c1.3,0.1,2.3-0.3,3.1-0.8c56.4,0.7,112.8,1.4,169.2,2.1c0.4,0.2,0.8,0.3,1.3,0.4c-0.4,0.9-0.6,2-0.4,3.2
		c2.1,11.6,4.2,23.2,6.3,34.9c-1,15-0.9,30-0.7,45c0.3,24.5,1.7,49,4,73.3c0.2,2.4,1.6,3.9,3.2,4.5c0.1,1.4,0.8,2.4,1.8,3
		c0.2,4.7,0.4,9.5,0.7,14.2c-0.8,1.7-0.8,3.9,0.3,5.4l0.5,10.7c0,0.3-0.1,0.6-0.1,0.9c-1.9,0.5-3.5,2-3.3,4.6c0.1,1,0.1,2.1,0.2,3.1
		c-0.9,0.8-1.4,2-1.2,3.4c0.1,1,0.3,2.1,0.4,3.1c-0.5,0.7-0.9,1.7-0.8,2.7c0,1.8,0.3,3.5,0.7,5.1c0.7,5.2,1.4,10.4,1.9,15.6
		c0.1,6.5,0,13-0.1,19.5c0,1.8,0.7,3,1.8,3.8c0,0.3,0,0.6,0,0.9c-1.2,0.2-2.3,0.7-3,1.6c-0.5-0.3-0.9-0.6-1.5-0.9
		c-0.8-0.5-1.8-0.6-2.7-0.6c-0.6-1-1.5-1.7-2.9-1.9c-0.4-0.1-0.9-0.1-1.3-0.2c0,0,0,0,0,0c-0.1,0-0.2,0-0.4,0
		c-2.5-0.3-4.9-0.3-7.3-0.1c-4.7,0.2-9.3,0.9-13.9,2.1c-2.4,0.6-3.5,2.4-3.5,4.2c-9.4-0.5-18.8-0.9-28.1-1.3
		c-0.8-0.7-1.9-1.2-3.2-1.3c-5.6-0.2-11.1-0.4-16.7-0.4c-0.1-1.1,1.5-4,1.8-5c1.2-3.2,2.2-6.4,3.2-9.6c1.6-5.3,2.9-10.6,4.1-16
		c0.2,0,0.4,0,0.6,0c1,0.1,2.1,0.1,3.1,0.2c-1.1,3.3-3.1,10.1-3.4,11c-2,6.1,7.6,8.7,9.6,2.7c1.8-5.3,6.3-13.4,3.7-19
		c-1-2.2-3.1-3.6-5.5-4.1c-1.2-0.3-2.8-0.2-4.5-0.2c-0.4-2.7-3.1-4.5-6.2-4c-3.5,0.5-6.6,1.8-9.5,3.7c-1.6,0.7-2.8,1.8-3.9,3.2
		c-1.2,1.6-1.4,3.8-0.8,5.6c0,0,0,0-0.1,0c-4.6,1.5-8.6,2.1-12.4,5.4c-1.4,1.3-1.7,3.3-1.2,5.1c-7.7,0.1-15.4,0-23-0.3
		c0.4-0.3,0.7-0.6,1.1-1c3.3-3.4,0.6-8.1-3.5-8.5c-14-1.6-28-2.9-42.1-3.7c-6.7-0.4-13.4-0.9-20.1-0.9c-5.2,0-9.8,0.9-13.8,4.4
		c-2.1,1.8-1.7,5.2,0,7.1c6.4,6.7,13,13.3,19.8,19.5c-15.3-2.5-30.6-4.5-46.1-5.5c-5.5-0.4-6.8,8.4-1.5,9.8c-0.1,0-0.1,0-0.2,0
		c-2.8-0.1-4.4,1.6-4.7,3.6c-5.4-1.6-10.8-3-16.3-4.3c-1.2-0.3-2.3-0.1-3.2,0.3c0-0.8-0.2-1.6-0.6-2.2c1-7.7,1.2-15.3,0.7-23
		c0.1-0.3,0.2-0.7,0.2-1c2.1-19.7,1.4-39.3-1.6-58.9c-0.1-0.5-0.2-0.9-0.5-1.3c1.7-0.2,3.3-1.4,4-3.5c3.9-12.5,1.8-25.4-0.9-38.3
		c0-9,0.2-18,0.5-27c0.1-1.9-0.7-3.2-1.9-4c0.9-5.6,2.6-12.1,1.7-17.5c-1.1-6.8-2.2-13.5-2.7-20.3c-0.2-2.5-0.3-5-0.4-7.4
		c0.4-4.4,1-8.7,1.7-13c0.3-1.9-0.4-3.5-1.5-4.6c0-0.6,0.1-1.2,0.1-1.8c2.6,1.4,6.2,0.7,6.9-2.9c0.8-4,1.6-10.1-0.6-13.8
		c-2.1-3.6-7.5-3.5-11-2.9c-1.5,0.3-3.3,1.9-3.5,3.5c-1.4,9.7-2.1,19.4-2.2,29.1c0-2.1-0.1-4.2-0.2-6.4c-0.1-1.8-1-3-2.1-3.8
		C7.6,35.3,7.7,24.7,7.9,14z M6.9,97.8c0.1,4.2,0.3,8.3,0.7,12.5c-0.4-0.4-0.9-0.8-1.4-1C6.4,105.4,6.6,101.6,6.9,97.8z"/>
	<path class="st1" d="M35.3,312.1"/>
	<path class="st2" d="M37.1,42.7c208.7-3.2,169.2-92,212-2.8"/>
	<line class="st2" x1="158.7" y1="223" x2="158.7" y2="223"/>
	<line class="st2" x1="137.6" y1="223.1" x2="138.6" y2="223.1"/>
	<line class="st2" x1="222.8" y1="223" x2="223.8" y2="223"/>
	<line class="st2" x1="213.7" y1="219.2" x2="214.7" y2="219.2"/>
	<line class="st2" x1="115.2" y1="227.8" x2="239.7" y2="207.9"/>
	<line class="st2" x1="205.1" y1="288.2" x2="206.1" y2="288.2"/>
	<line class="st2" x1="227.4" y1="235.3" x2="228.4" y2="235.3"/>
</g>
<g>
	<rect x="144.3" y="168.3" class="st3" width="5" height="9.9"/>
	<rect x="144.3" y="168.3" class="st2" width="5" height="9.9"/>
</g>
<path class="st4" d="M178.4,227.8c-8.9,0-19.1-3.5-29.7-10.2c-16.6-10.5-32.5-28.1-44.7-49.3s-19.5-43.7-20.3-63.4
	c-1-20.2,5-35.1,16.7-41.9s27.5-4.5,44.6,6.3c16.6,10.5,32.5,28.1,44.7,49.3c12.3,21.2,19.5,43.7,20.3,63.4
	c0.9,20.2-5.1,35.1-16.9,41.9C188.8,226.6,183.8,227.8,178.4,227.8z M115.2,64.2c-4.6,0-8.8,1-12.5,3.2c-10,5.8-15.1,19.1-14.4,37.3
	c0.9,18.8,7.8,40.5,19.7,61.2c11.9,20.6,27.1,37.5,43.1,47.7c15.4,9.8,29.5,12,39.5,6.3c10-5.8,15.1-19.1,14.4-37.3
	c-0.9-18.8-7.8-40.5-19.7-61.2c-11.9-20.6-27.1-37.5-43.1-47.7C132.5,67.3,123.2,64.2,115.2,64.2z"/>
<path class="st4" d="M115.2,227.8c-5.5,0-10.5-1.2-14.9-3.8c-11.8-6.8-17.7-21.6-16.9-41.9c0.9-19.6,8.1-42.1,20.3-63.4
	s28.1-38.8,44.7-49.3c17.1-10.9,33-13.1,44.6-6.3c11.8,6.8,17.7,21.6,16.9,41.9c-0.9,19.6-8.1,42.1-20.3,63.4s-28.1,38.8-44.7,49.3
	C134.4,224.5,124.2,227.8,115.2,227.8L115.2,227.8z M178.4,64.2c-8.1,0-17.2,3.2-27,9.4c-15.9,10.2-31.2,27-43.1,47.7
	c-11.9,20.6-18.8,42.3-19.7,61.2c-0.9,18.2,4.3,31.5,14.4,37.3c10,5.8,24,3.6,39.5-6.3c15.9-10.2,31.2-27,43.1-47.7
	c11.9-20.6,18.8-42.3,19.7-61.2c0.7-18.2-4.3-31.5-14.4-37.3C187.1,65.2,183,64.2,178.4,64.2L178.4,64.2z"/>
<path class="st4" d="M146.8,193.1c-24.5,0-47.7-5-65.1-14c-18-9.4-27.9-22.1-27.9-35.6s9.9-26.1,27.9-35.4
	c17.3-9,40.5-14.1,65.1-14.1s47.7,5,65.1,14c18,9.4,27.9,22.1,27.9,35.6c0,13.5-9.9,26.1-27.9,35.4
	C194.5,188,171.3,193.1,146.8,193.1z M146.8,98.9c-48.4,0-88,19.9-88,44.6s39.5,44.6,88,44.6s88-19.9,88-44.6S195.2,98.9,146.8,98.9
	L146.8,98.9z"/>
<g>
	<polygon class="st5" points="147.4,124.2 153.7,137.5 167.9,139.6 157.7,149.9 160.1,164.4 147.4,157.6 134.7,164.4 137.1,149.9 
		126.8,139.6 141,137.5 	"/>
	<polygon class="st6" points="147.4,124.2 153.7,137.5 167.9,139.6 157.7,149.9 160.1,164.4 147.4,157.6 134.7,164.4 137.1,149.9 
		126.8,139.6 141,137.5 	"/>
	<polygon class="st7" points="147.4,124.2 153.7,137.5 167.9,139.6 157.7,149.9 160.1,164.4 147.4,157.6 134.7,164.4 137.1,149.9 
		126.8,139.6 141,137.5 	"/>
	<polygon class="st8" points="147.4,124.2 153.7,137.5 167.9,139.6 157.7,149.9 160.1,164.4 147.4,157.6 134.7,164.4 137.1,149.9 
		126.8,139.6 141,137.5 	"/>
</g>
</svg>
